<?xml version="1.0" encoding="utf-8"?>
<!-- Generator: Adobe Illustrator 16.0.0, SVG Export Plug-In . SVG Version: 6.00 Build 0)  -->
<!DOCTYPE svg PUBLIC "-//W3C//DTD SVG 1.1//EN" "http://www.w3.org/Graphics/SVG/1.1/DTD/svg11.dtd">
<svg fill="#fff" version="1.1" id="Layer_1" xmlns="http://www.w3.org/2000/svg" xmlns:xlink="http://www.w3.org/1999/xlink" x="0px" y="0px"
	 width="882px" height="177px" viewBox="0 0 882 177" enable-background="new 0 0 882 177" xml:space="preserve">
<g>
	<path d="M823.387,93.614c27.199-3.157,42.014-20.643,42.014-44.686C865.4,22.214,846.701,4,813.43,4H156l13,11.171h643.457
		c25.743,0,40.801,12.386,40.801,34c0,22.101-15.058,34.243-40.801,34.243h-70.062c-1.24,1.054-12.887,8.562-15.055,11.172h82.203
		L864.914,174H879L823.387,93.614z"/>
</g>
<path d="M205.516,173.586H869l-13.119-11.172H206.498C180.518,162.414,171.938,173.586,205.516,173.586z"/>
<path d="M315.387,93.614c27.199-3.157,42.014-20.643,42.014-44.686C357.4,22.214,338.701,4,663.43,4H6l14,11.171h284.457
	c25.743,0,40.801,12.386,40.801,34c0,22.101-15.058,34.243-40.801,34.243h-70.062c-1.24,1.054-12.887,8.562-15.055,11.172h82.203
	L356.914,174H371L315.387,93.614z"/>
<g>
	<path d="M190.014,84.386C162.814,87.542,148,105.028,148,129.071C148,155.785,166.699,174,199.971,174H857.4l-13-11.172H200.943
		c-25.743,0-40.801-12.386-40.801-34c0-22.101,15.058-34.243,40.801-34.243h70.062c1.24-1.054,12.887-8.562,15.055-11.172h-82.203
		L190.014,84.386z"/>
</g>
<path d="M378,88.999c0-31.921,24-60.481,60.961-60.481c37.201,0,61.201,28.561,61.201,60.481c0,31.681-24,60.001-61.201,60.001
	C402,149,378,120.68,378,88.999z M488.163,88.999c0-28.081-21.361-49.681-49.201-49.681c-27.841,0-48.961,21.6-48.961,49.681
	c0,27.601,21.121,49.201,48.961,49.201C466.802,138.2,488.163,116.6,488.163,88.999z"/>
<path d="M530.037,32l12.523-1l-0.764,51.522l59.521-48.241h17.041l-64.082,51.841L627,149.004h-17.521l-67.682-58.321v58.321h-11.76
	V32z"/>
<polygon points="654.037,31 666.561,30 665.797,81.522 725.318,33.281 742.359,33.281 678.277,85.123 751,148.004 733.479,148.004
	665.797,89.683 665.797,148.004 654.037,148.004 "/>
</svg>
